/* XPM */
static char *result[] = {
/* columns rows colors chars-per-pixel */
"64 64 192 2 ",
"   c white",
".  c #EEF6EC",
"X  c #D4E8CF",
"o  c #FEFFFE",
"O  c #FEFEFD",
"+  c #B9D9B1",
"@  c #89C07C",
"#  c #E7F2E5",
"$  c #E4F1E1",
"%  c #86BE78",
"&  c #74B565",
"*  c #AFD4A6",
"=  c #FCFDFC",
"-  c #FBFDFB",
";  c #AAD2A1",
":  c #75B566",
">  c #76B666",
",  c #80BB72",
"<  c #DBECD7",
"1  c #D7E9D3",
"2  c #7EBA70",
"3  c #75B666",
"4  c #76B667",
"5  c #A0CC95",
"6  c #F7FBF7",
"7  c #F6FAF5",
"8  c #9CCA91",
"9  c #7AB86C",
"0  c #CDE4C7",
"q  c #C8E2C2",
"w  c #79B76A",
"e  c #92C586",
"r  c #F0F7EF",
"t  c #8FC383",
"y  c #77B768",
"u  c #BDDCB6",
"i  c #FEFEFE",
"p  c #87BF7A",
"a  c #E6F2E3",
"s  c #E3F0E0",
"d  c #85BE78",
"f  c #ADD3A5",
"g  c #FAFCFA",
"h  c #A9D19F",
"j  c #7FBB71",
"k  c #D9EBD5",
"l  c #D6E9D2",
"z  c #7EBA6F",
"x  c #9ECB94",
"c  c #F7FBF6",
"v  c #F6FAF4",
"b  c #9AC98F",
"n  c #7AB86B",
"m  c #CBE3C5",
"M  c #D4E8D0",
"N  c #C3DFBD",
"B  c #A7D09D",
"V  c #79B86A",
"C  c #8AC17D",
"Z  c #B9DAB1",
"A  c #DCECD8",
"S  c #E9F3E6",
"D  c #F2F8F1",
"F  c #FBFDFA",
"G  c #FDFEFC",
"H  c #F8FBF8",
"J  c #F1F7EF",
"K  c #D7EAD3",
"L  c #C7E1C1",
"P  c #B6D8AD",
"I  c #A4CE9A",
"U  c #96C78A",
"Y  c #89C07D",
"T  c #75B565",
"R  c #78B769",
"E  c #7BB96D",
"W  c #83BD76",
"Q  c #ACD3A2",
"!  c #BEDCB7",
"~  c #CFE5CA",
"^  c #DDEDD9",
"/  c #EAF4E8",
"(  c #F5FAF4",
")  c #FAFDFA",
"_  c #E5F1E3",
"`  c #C7E1C2",
"'  c #B8D9B1",
"]  c #A8D19F",
"[  c #98C88C",
"{  c #8BC17E",
"}  c #82BC74",
"|  c #77B668",
" . c #7DBA6F",
".. c #86BE79",
"X. c #90C484",
"o. c #9FCC95",
"O. c #B0D5A7",
"+. c #C0DDB9",
"@. c #D2E7CD",
"#. c #DFEEDC",
"$. c #91C484",
"%. c #73B464",
"&. c #B5D8AC",
"*. c #E6F1E3",
"=. c #7EBB70",
"-. c #BFDDB9",
";. c #F9FCF8",
":. c #EFF6ED",
">. c #FDFEFD",
",. c #F5FAF5",
"<. c #B5D7AD",
"1. c #7AB96C",
"2. c #8EC382",
"3. c #C2DFBC",
"4. c #98C98D",
"5. c #E5F1E1",
"6. c #D0E6CB",
"7. c #A5CF9B",
"8. c #B2D6AA",
"9. c #F4FAF3",
"0. c #9CCA90",
"q. c #C1DEBA",
"w. c #FAFCF9",
"e. c #EFF7EE",
"r. c #77B769",
"t. c #CEE5C9",
"y. c #F6FBF6",
"u. c #B6D8AE",
"i. c #7CB96D",
"p. c #BADAB2",
"a. c #8AC17E",
"s. c #E4F0E0",
"d. c #C6E0C0",
"f. c #F3F9F2",
"g. c #AAD2A0",
"h. c #7FBB72",
"j. c #E0EEDC",
"k. c #F4F9F3",
"l. c #76B668",
"z. c #E0EFDE",
"x. c #AED3A5",
"c. c #C8E1C2",
"v. c #95C78A",
"b. c #ABD2A2",
"n. c #84BD77",
"m. c #E8F2E5",
"M. c #78B86A",
"N. c #D2E8CE",
"B. c #80BC73",
"V. c #B8D9B0",
"C. c #CAE3C5",
"Z. c #88C07B",
"A. c #C9E2C3",
"S. c #9CCB92",
"D. c #ADD4A5",
"F. c #8CC27F",
"G. c #BADBB3",
"H. c #E9F3E7",
"J. c #D3E8CE",
"K. c #7DB96F",
"L. c #95C789",
"P. c #C0DEB9",
"I. c #EDF5EB",
"U. c #A4CE99",
"Y. c #7FBB70",
"T. c #7DB96E",
"R. c #E5F1E2",
"E. c #81BC74",
"W. c #94C688",
"Q. c #C6E1C0",
"!. c #F0F7EE",
"~. c #DBECD6",
"^. c #C2DEBC",
"/. c #CCE4C6",
"(. c #7BB96C",
"). c #99C98E",
"_. c #DEEDDA",
"`. c #82BD75",
"'. c #A9D1A0",
"]. c #72B463",
"[. c #7CB96E",
"{. c #D1E6CC",
"}. c #FCFEFC",
"|. c #E1EFDE",
" X c #84BE77",
".X c #73B564",
"XX c #F5F9F3",
"oX c #A2CD98",
"OX c #D7EAD2",
"+X c #F8FBF7",
"@X c #E4F0E1",
"#X c #F1F8EF",
/* pixels */
"                                                                                                                                ",
"                                                                                                                                ",
"                                                                                                                                ",
"                                                                                                                                ",
"                                                                                                                                ",
"                                                                                                                                ",
"                                                                                                                                ",
"                                                                                                                                ",
"                                                                                                                                ",
"                                                                                                                                ",
"                                                                                                                                ",
"                                                              . X o                                                             ",
"                                                            O + @ #                                                             ",
"                                                            $ % & * =                                                           ",
"                                                          - ; : > , <                                                           ",
"                                                          1 2 3 4 & 5 6                                                         ",
"                                                        7 8 & 4 4 4 9 0                                                         ",
"                                                        q w 4 4 4 4 & e r                                                       ",
"                                                      . t : 4 4 4 4 4 y u i                                                     ",
"                                                    i + 4 4 4 4 4 4 4 : p a                                                     ",
"                                                    s d 3 4 4 4 4 4 4 4 : f -                                                   ",
"                                                  g h & 4 4 4 4 4 4 4 4 3 j k                                                   ",
"                                                  l z 3 4 4 4 4 4 4 4 4 4 & x c                                                 ",
"                                                v b & 4 4 4 4 4 4 4 4 4 4 4 n m                                                 ",
"                                    i c . $ M N B V 4 4 4 4 4 4 4 4 4 4 4 4 : C Z m A S D F                                     ",
"                      G H J $ K L P I U Y j n 4 & 4 4 4 4 4 4 4 4 4 4 4 4 4 4 3 T R E W t 8 Q ! ~ ^ / ( )                       ",
"                _ ` ' ] [ { } 9 4 : & & : 3 4 4 4 4 4 4 4 4 4 4 4 4 4 4 4 4 4 4 4 4 4 3 T & & 3 |  ...X.o.O.+.@.7               ",
"                #.$.%.& & : 3 4 4 4 4 4 4 4 4 4 4 4 4 4 4 4 4 4 4 4 4 4 4 4 4 4 4 4 4 4 4 4 4 4 4 > : & & %.w &.c               ",
"                  *.b 3 4 4 4 4 4 4 4 4 4 4 4 4 4 4 4 4 4 4 4 4 4 4 4 4 4 4 4 4 4 4 4 4 4 4 4 4 4 4 4 4 : =.-.;.                ",
"                    :.B y 3 4 4 4 4 4 4 4 4 4 4 4 4 4 4 4 4 4 4 4 4 4 4 4 4 4 4 4 4 4 4 4 4 4 4 4 4 4 & d 0 >.                  ",
"                      ,.<.1.3 4 4 4 4 4 4 4 4 4 4 4 4 4 4 4 4 4 4 4 4 4 4 4 4 4 4 4 4 4 4 4 4 4 4 4 : 2.k                       ",
"                        g 3., : 4 4 4 4 4 4 4 4 4 4 4 4 4 4 4 4 4 4 4 4 4 4 4 4 4 4 4 4 4 4 4 4 4 3 4.5.                        ",
"                          >.6.p T 4 4 4 4 4 4 4 4 4 4 4 4 4 4 4 4 4 4 4 4 4 4 4 4 4 4 4 4 4 4 > y 7..                           ",
"                              A X.T 4 4 4 4 4 4 4 4 4 4 4 4 4 4 4 4 4 4 4 4 4 4 4 4 4 4 4 4 : n 8.9.                            ",
"                                # 0.4 4 4 4 4 4 4 4 4 4 4 4 4 4 4 4 4 4 4 4 4 4 4 4 4 4 4 : j q.w.                              ",
"                                  e.] r.3 4 4 4 4 4 4 4 4 4 4 4 4 4 4 4 4 4 4 4 4 4 4 4 T ..t.>.                                ",
"                                    y.u.i.4 4 4 4 4 4 4 4 4 4 4 4 4 4 4 4 4 4 4 4 4 4 3 t <                                     ",
"                                      F p.y 4 4 4 4 4 4 4 4 4 4 4 4 4 4 4 4 4 4 4 4 : a.s.                                      ",
"                                        d.| 4 4 4 4 4 4 4 4 4 4 4 4 4 4 4 4 4 4 4 4 T 2.f.                                      ",
"                                      G g.& 4 4 4 4 4 4 4 4 4 4 4 4 4 4 4 4 4 4 4 4 3 h.j.                                      ",
"                                      k.X.T 4 4 4 4 4 4 4 4 4 4 4 4 4 4 4 4 4 4 4 4 4 l.q                                       ",
"                                      z., 3 4 4 4 4 4 4 4 4 4 4 4 4 4 4 4 4 4 4 4 4 4 & x.o                                     ",
"                                      c.| 4 4 4 4 4 4 4 4 4 4 4 4 4 4 4 4 4 4 4 4 4 4 & v.6                                     ",
"                                    O b.& 4 4 4 4 4 4 4 4 4 4 4 4 4 4 4 4 4 4 4 4 4 4 3 n.m.                                    ",
"                                    ( e & 4 4 4 4 4 4 4 4 4 4 4 4 4 4 4 4 4 4 4 4 4 4 4 M.N.                                    ",
"                                    s B.3 4 4 4 4 4 4 4 4 4 : 4 R & 4 4 4 4 4 4 4 4 4 4 3 V.                                    ",
"                                    C.y 4 4 4 4 4 4 4 4 : > Z.<.A.S.E & 3 4 4 4 4 4 4 4 & o.)                                   ",
"                                  o D.& 4 4 4 4 4 4 T | F.G.H.o   c J.5 K.& 3 4 4 4 4 4 : C :.                                  ",
"                                  ( L.& 4 4 4 4 & R X.P.I.            ;.K U.Y.& 3 4 4 4 4 T.A                                   ",
"                                  R.E.3 4 4 & V W.Q.!.                    w.~.B , T 3 4 4 4 ^.                                  ",
"                                  /.R 4 & (.)./.f.                            - _.b.`.: 3 & '.G                                 ",
"                                i O.].[.x {.7                                     }.|.*  X.XX.XX                                ",
"                                y.o.oXOX+X                                            >.$ 8.e @X                                ",
"                                ;.$ w.                                                    O S #X                                ",
"                                                                                                                                ",
"                                                                                                                                ",
"                                                                                                                                ",
"                                                                                                                                ",
"                                                                                                                                ",
"                                                                                                                                ",
"                                                                                                                                ",
"                                                                                                                                ",
"                                                                                                                                ",
"                                                                                                                                "
};
