/* XPM */
static char *cee1c0c7adce40c4e616883f76a3aff8k4Hea7uToycAAx39[] = {
/* columns rows colors chars-per-pixel */
"64 64 181 2 ",
"   c None",
".  c #050505",
"X  c #090606",
"o  c #0C0C0C",
"O  c #070808",
"+  c #1D0505",
"@  c #1B0C0C",
"#  c #110F0F",
"$  c #18100F",
"%  c #0F1111",
"&  c #111111",
"*  c #1A1414",
"=  c #1C1B1B",
"-  c #210B0B",
";  c #290C0C",
":  c #370505",
">  c #231111",
",  c #251717",
"<  c #3D1B2D",
"1  c #192836",
"2  c #242424",
"3  c #2B2121",
"4  c #2A2A2A",
"5  c #3B2B2B",
"6  c #342829",
"7  c #2D2F32",
"8  c #2F3232",
"9  c #323232",
"0  c #3C3C3C",
"q  c #3E362A",
"w  c #480101",
"e  c #481F1F",
"r  c #5B1D1D",
"t  c #511D1D",
"y  c #690404",
"u  c #7A0303",
"i  c #6A1C1C",
"p  c #7D1616",
"a  c #741717",
"s  c #6F3A0A",
"d  c #703A0B",
"f  c #7B2718",
"g  c #672706",
"h  c #611624",
"j  c #482827",
"k  c #562525",
"l  c #7A3636",
"z  c #792C2C",
"x  c #794616",
"c  c #7C4622",
"v  c #7B502B",
"b  c #122F4F",
"n  c #032745",
"m  c #113861",
"M  c #523346",
"N  c #773A68",
"B  c #36404B",
"V  c #434444",
"C  c #4C4C4C",
"Z  c #484748",
"A  c #535353",
"S  c #5C5C5C",
"D  c #5B5757",
"F  c #615555",
"G  c #795E6E",
"H  c #614475",
"J  c #785A78",
"K  c #646464",
"L  c #6C6C6C",
"P  c #716F6F",
"I  c #737373",
"U  c #7D7D7D",
"Y  c #8C0101",
"T  c #880B0C",
"R  c #9E0A0B",
"E  c #960804",
"W  c #881708",
"Q  c #971205",
"!  c #871313",
"~  c #921111",
"^  c #9F1818",
"/  c #A50201",
"(  c #A90F0F",
")  c #A90A0A",
"_  c #B50101",
"`  c #BC0202",
"'  c #B40A0A",
"]  c #BB0809",
"[  c #B8060B",
"{  c #AB1809",
"}  c #B90910",
"|  c #A81812",
" . c #BC171A",
".. c #A90811",
"X. c #9E2C16",
"o. c #982512",
"O. c #97260E",
"+. c #A22F19",
"@. c #B12112",
"#. c #9D1934",
"$. c #931A28",
"%. c #A8182B",
"&. c #BF1022",
"*. c #8D292B",
"=. c #972222",
"-. c #8A3D3D",
";. c #C30202",
":. c #CC0101",
">. c #D40101",
",. c #DC0101",
"<. c #D81E1F",
"1. c #E40000",
"2. c #EC0000",
"3. c #E30C0E",
"4. c #F30000",
"5. c #FC0000",
"6. c #E11C1D",
"7. c #F71A1A",
"8. c #C0262A",
"9. c #C03032",
"0. c #E42126",
"q. c #E33334",
"w. c #994C12",
"e. c #8C5416",
"r. c #895927",
"t. c #97423B",
"y. c #8C633A",
"u. c #946B3E",
"i. c #926636",
"p. c #9D7D33",
"a. c #957629",
"s. c #912F49",
"d. c #99334D",
"f. c #882F51",
"g. c #B63A46",
"h. c #AE3150",
"j. c #A84453",
"k. c #966D40",
"l. c #84446D",
"z. c #A14963",
"x. c #837676",
"c. c #AD6B68",
"v. c #C74C51",
"b. c #A99629",
"n. c #A3903F",
"m. c #B2AC5B",
"M. c #CCB541",
"N. c #C5BC51",
"B. c #3C539A",
"V. c #3C5CA5",
"C. c #5A458A",
"Z. c #4B6082",
"A. c #5B78B0",
"S. c #4869B3",
"D. c #6E7AA5",
"F. c #307CD4",
"G. c #277AD7",
"H. c #927490",
"J. c #C67580",
"K. c #6789B4",
"L. c #0E9FFE",
"P. c #2097EF",
"I. c #19A9FF",
"U. c #32B0FF",
"Y. c #2BACF9",
"T. c #55BFFF",
"R. c #42AAE8",
"E. c #5BC9FF",
"W. c #6ED4FF",
"Q. c #73D0FE",
"!. c #838383",
"~. c #8A8383",
"^. c #809EBE",
"/. c #AB92A5",
"(. c #B2AAAB",
"). c #CE838B",
"_. c #D48D93",
"`. c #C9A6A6",
"'. c #B0ACC2",
"]. c #A5BACF",
"[. c #9FD8F0",
/* pixels */
"                                                                                                                                ",
"                                                                                                                                ",
"                                                                                                                                ",
"                                                                                                                                ",
"                                                                                                                                ",
"                                                              o o                                                               ",
"                                                              o o                                                               ",
"                                                              o o                                                               ",
"                                                              o o o                                                             ",
"                                                            o o o o                                                             ",
"                                                            o o o o                                                             ",
"                                                            o o o o                                                             ",
"                                                          o o o o o o                                                           ",
"                                                          o o o o o o                                                           ",
"                                                          o o o o o o                                                           ",
"                                                          o o o o o o o                                                         ",
"                                                        o o o & & o o o                                                         ",
"                                                        2 = o & & o o o                                                         ",
"                                                    !.!.!.S & & & o o o                                                         ",
"                                                l x.U I K A 2 o & o o O O       K L K                                           ",
"                                              a ` *.Z 0 0 9 4 & & o O O &   I I I L S C                                         ",
"                                              T ..| j 9 9 7 6 * o O = 0 K I I L K S C Z 9                                       ",
"                                                  m.n.q 1 b < $ 2 C I U U L K S A Z 0 9 9                                       ",
"                                                  N.M.x n m M F U !.U I L S A Z V 0 9 9 9 4                                     ",
"                                                  b.b.e.B Z.G ~.!.I L K S C Z 0 9 9 9 9 9 9                                     ",
"                                              h c a.p.w.f $.*.P L K S A Z 0 9 9 9 9 9 9 9 9 4 o O O O O O O O O O O O O O .     ",
"                    o o o o o o o o o o o o Y ` ' ( ^ R :.1.=.K S A Z V 0 9 9 9 9 9 9 9 8 k T + O O O O O O O O O O O O .       ",
"                  o o o o o o o o o o o o ; _ >.>.:.:.;. .l D A C Z 0 9 9 9 9 9 9 9 9 5 p 1.,.; O O O O O O O O O O O           ",
"                # & & # # # o o o o o o - E :.:.9.v.;.( F S A Z 0 9 9 9 9 9 9 9 9 8 k ' 5.5.,.> O O O O O O O O O O             ",
"                  o & o o & & & & & o @ E :.:.8.].[.g.;.z Z V 0 9 9 9 9 9 9 9 8 5 ! 1.5.5.5.>.> O O O O O O O O                 ",
"                    o o o o o & & & * u :.:. .^.W.E.K.] ' j 9 9 9 9 9 9 9 9 9 k ] 5.5.7.q.2.>.> O O O O O O O                   ",
"                      o o o o o o & y ;.;.` J R.Y.I.L.N :.T 9 9 9 9 9 9 8 5 ! 1.5.5.0.'.).2.:.- O O O O O O                     ",
"                          o o o o - ;.1.>.;.} %.f.H V.B.} ` r 9 9 9 9 9 r ;.5.5.4.5.h.T.H.1.:.@ O O O O                         ",
"                            o o o @ :.4.2.2.2.1.1.,.:.} ` ;.R 5 9 9 j ~ 1.5.5.0.<.2.h.F.d.2.;.@ O O O                           ",
"                              o o @ ;.2.2.2.,.:.,.1.2.1.,.,.` a 9 i ;.4.4.4.g.].v.2.&.%.2.5.` @ O                               ",
"                                  @ ;.2.2.2.>.E Q / >.2.2.2.,._ R 1.4.4.2.2.A.E.j.1.2.2.4.4.R *                                 ",
"                                    ;.2.2.2.,.o.v c { 2.2.2.2.1.1.4.2.6.,.1.S.P.s.1.4.4.2.( k                                   ",
"                                    >.2.2.2.,.X.y.y.| 2.2.2.2.1.,.3.J._.,.1.C.f.>.2.2.1.|                                       ",
"                                    >.2.2.2.,.+.k.u.@.2.2.2.2.1.,.z.Q./.>.1.} ,.2.2.,.^                                         ",
"                                    :.2.2.2.,.X.u.u.@.2.2.2.2.1.,.l.U.D.:.1.1.2.2.:.i                                           ",
"                                    :.1.1.2.>.X.i.i.@.2.2.2.2.1.,.N G.s.>.1.1.1.] t =                                           ",
"                                    ` ,.,.1.>.O.r.r.{ 2.2.2.2.1.,.#.#.,.1.1.1.) j = O O                                         ",
"                                    / :.>.>.;.W x x { 1.1.1.1.,.>.:.,.1.1.,.~ 3 * O O O                                         ",
"                                      y Y _ _ W s d Q ,.,.,.1.,.>.1.1.1.>.p 3 * O O O O                                         ",
"                                      . O : -.t.f g Q :.:.:.>.>.>.1.1.:.i , # O O O O O O                                       ",
"                                      O O # L (.`.c.! ` ;.;.;.;.>.1.;.r , o O O O O O O O                                       ",
"                                      O O O O * Z K > : u / ` ` :.' t = O O O O O . O O .                                       ",
"                                    O O O O O O O . O . O + w Y E j * O O O O O O O O . . .                                     ",
"                                    O O O O O O O O O O O . .       O O O O O O O O . . . .                                     ",
"                                    O O O O O O O O O O O             O O O O O . O . . . .                                     ",
"                                  O O O O o O O O O O O                 . . O . . . . . . . .                                   ",
"                                  O O O O O O O O O O                     . . . . . . . . . .                                   ",
"                                  O O O O O O O O O                         . . . . . . . . . .                                 ",
"                                O O O O O O O O                                 . . . . . . . .                                 ",
"                                O O O O O O O                                     . . . . . . .                                 ",
"                                O O O O O O                                         . . . . . . .                               ",
"                              O O O O O O                                             . . . . . .                               ",
"                              O O O O O                                                 . . . . .                               ",
"                            O O O O O                                                     . . . . .                             ",
"                            O O O                                                             . . .                             ",
"                            O O                                                                 . . .                           ",
"                          O O                                                                     . .                           ",
"                          O                                                                         .                           ",
"                                                                                                                                "
};
