/* XPM */
static char *_5714da56e2d43629f77b31609751ba1I8sk1bL77mgDzps0[] = {
/* columns rows colors chars-per-pixel */
"64 64 237 2 ",
"   c #281F15",
".  c #1A351D",
"X  c #273215",
"o  c #0F1322",
"O  c #121425",
"+  c #16192C",
"@  c #181A2B",
"#  c #191C33",
"$  c #1A1D34",
"%  c #1A2F2C",
"&  c #1D2233",
"*  c #1E2138",
"=  c #28252A",
"-  c #283E25",
";  c #3B342E",
":  c #222B36",
">  c #272835",
",  c #21243B",
"<  c #293A36",
"1  c #4F391D",
"2  c #473522",
"3  c #274F1C",
"4  c #256D0D",
"5  c #286F0F",
"6  c #27700E",
"7  c #2A730E",
"8  c #2D7A0F",
"9  c #307C0F",
"0  c #276D10",
"q  c #296F12",
"w  c #2D6B1B",
"e  c #34621E",
"r  c #2C7512",
"t  c #2E7912",
"y  c #307714",
"u  c #327D14",
"i  c #34741B",
"p  c #397419",
"a  c #357D19",
"s  c #397C1D",
"d  c #2D4E2D",
"f  c #35432B",
"g  c #334937",
"h  c #39573A",
"j  c #2E6621",
"k  c #37672C",
"l  c #3B7627",
"z  c #3C7B24",
"x  c #3D6635",
"c  c #3F7131",
"v  c #524B1C",
"b  c #744D0E",
"n  c #467B17",
"m  c #567310",
"M  c #587A18",
"N  c #657614",
"B  c #747213",
"V  c #725F39",
"C  c #457C2B",
"Z  c #587C22",
"A  c #446838",
"S  c #467934",
"D  c #587335",
"F  c #282A42",
"G  c #2E3145",
"H  c #323649",
"J  c #3A3C52",
"K  c #394848",
"L  c #3E5546",
"P  c #444958",
"I  c #535051",
"U  c #506E4E",
"Y  c #4C7444",
"T  c #596E55",
"R  c #646E53",
"E  c #4E5063",
"W  c #555869",
"Q  c #5B626B",
"!  c #676F6D",
"~  c #975B0B",
"^  c #8F5C11",
"/  c #895C14",
"(  c #89630E",
")  c #9C620B",
"_  c #976614",
"`  c #8B7115",
"'  c #967618",
"]  c #A4640A",
"[  c #A66808",
"{  c #AC6B0A",
"}  c #A8790F",
"|  c #BA7506",
" . c #B87708",
".. c #BA7609",
"X. c #BD790B",
"o. c #A86D14",
"O. c #A67615",
"+. c #B67C13",
"@. c #8E7827",
"#. c #A97A22",
"$. c #C47B05",
"%. c #CB7F05",
"&. c #C47E0B",
"*. c #C07E12",
"=. c #816B44",
"-. c #30810E",
";. c #358215",
":. c #368515",
">. c #388616",
",. c #368814",
"<. c #3A8A16",
"1. c #368218",
"2. c #398519",
"3. c #398619",
"4. c #3B8919",
"5. c #3D8B1A",
"6. c #3E8D19",
"7. c #3E9216",
"8. c #3F9119",
"9. c #3F8522",
"0. c #4B8417",
"q. c #43851E",
"w. c #4B841B",
"e. c #408E1C",
"r. c #418E1D",
"t. c #4A8D1E",
"y. c #57881B",
"u. c #409317",
"i. c #41921B",
"p. c #43941C",
"a. c #46991D",
"s. c #499A1E",
"d. c #50951E",
"f. c #6C8916",
"g. c #788718",
"h. c #6C961A",
"j. c #488625",
"k. c #448D22",
"l. c #578825",
"z. c #459221",
"x. c #4B9621",
"c. c #479921",
"v. c #4A9B21",
"b. c #4C932C",
"n. c #589526",
"m. c #4C8634",
"M. c #528F37",
"N. c #579435",
"B. c #688C27",
"V. c #768A26",
"C. c #639827",
"Z. c #78972B",
"A. c #6D9631",
"S. c #749336",
"D. c #4EA222",
"F. c #78A331",
"G. c #578741",
"H. c #5E8058",
"J. c #789354",
"K. c #738E6C",
"L. c #79A865",
"P. c #868218",
"I. c #908C16",
"U. c #939517",
"Y. c #AF8D0F",
"T. c #BE920C",
"R. c #AB8818",
"E. c #B88617",
"W. c #B79819",
"Q. c #84892C",
"!. c #968D24",
"~. c #889326",
"^. c #979327",
"/. c #859933",
"(. c #9F9636",
"). c #A68524",
"_. c #B88922",
"`. c #A79528",
"'. c #B99A26",
"]. c #B29638",
"[. c #8BA83B",
"{. c #BFA320",
"}. c #ADA433",
"|. c #BDA63A",
" X c #CD8105",
".X c #CB8B08",
"XX c #D38504",
"oX c #D48507",
"OX c #D68903",
"+X c #DD8D02",
"@X c #D58A0D",
"#X c #DF9106",
"$X c #D2930D",
"%X c #DE930A",
"&X c #C38716",
"*X c #CA8A13",
"=X c #D68D17",
"-X c #CA9417",
";X c #D99816",
":X c #E18F05",
">X c #E39106",
",X c #E1960A",
"<X c #EA9609",
"1X c #EE9608",
"2X c #E1980B",
"3X c #F09709",
"4X c #F4990A",
"5X c #E49613",
"6X c #E79813",
"7X c #E99A15",
"8X c #EC9C1C",
"9X c #D0A41F",
"0X c #E9A617",
"qX c #F4A313",
"wX c #F0A01E",
"eX c #F3AD1B",
"rX c #F1B21F",
"tX c #CE8E21",
"yX c #C79928",
"uX c #D49725",
"iX c #EF9F20",
"pX c #EBA523",
"aX c #8E9C49",
"sX c #B28B4B",
"dX c #92A749",
"fX c #BCAA42",
"gX c #A18A68",
"hX c #B8AF71",
"jX c #C89B53",
"kX c #CEAB4C",
"lX c #C19F6A",
"zX c #CFB77C",
"xX c #717482",
"cX c #839684",
"vX c #888C95",
"bX c #A7B68D",
"nX c #999EA2",
/* pixels */
"r r r r 3.r.y y r.y u ;.6.4.;.u 4.r r ;.1.u r t 0 ;.r.u r 5.1.7 ;.1.p.u u 4.u 6 ;.1.a r t 0 t r.3.r ;.r.6 ;.u p.u ;.;.:.6 t 1.3.",
"6 :.3.u 4.5.8 6 ;.>.:.8 u 4.r p.a.;.6 r u 6 ;.4.u ;.r.;.4 9 :.>.u r 6.r 4.c.6.6 6 u r t 4.1.u r.>.4 7 ;.>.;.7 >.u u v.p.t 6 r u ",
"4.u r i.r u i.i.5.<.t u r y r ;.u r ;.r ;.;.;.q r.u t 6.i.6.6.u u r y r u ;.r u r u ;.3.r 1.4.r >.p.p.6.:.t u r t t :.y y u r ;.",
"r u 6.v.u 6 :.6.4.t ;.p.4.:.p.3.4.p.,.>.:.u r 3.v.6.6 u 6.6.u u 5.p.u i.5.3.p.6.:.3.;.r u c.p.r 8 4.6.:.t 3.p.;.6.6.3.6.i.;.3.:.",
"7 :.5.;.u i.6.7.4.4 i.6.p.u p.p.u u ;.6.6.;.u 4.3.t 6.i.<.p.4 4.i.a.1.6.p.4.t 1.5.r.5.t 4.4.t >.i.4.p.r t c.p.6.3.p.i.r 1.3.r.r.",
"u u 5.u t ;.;.u t 6.8.p.>.u ;.u 4.4.3.;.r.u u 3.:.r ;.;.;.t :.i.i.8.u ;.u 3.:.5.u r.:.u ;.5.r u ;.:.u u i.z.j.s ;.;.;.:.5.;.3.6.",
"8.4.>.u u ;.u ;.:.p.p.u 4.:.8 7 p.;.;.5.5.;.6.4.u u ;.u u 3.4.v.;.;.4.t 7 5.4.;.>.p.u 6.4.;.A g g L U K d k h < j w D n.u ;.6.1.",
"5.u 1.u 5.3.r 5.1.t p.;.6.u ,.4.1.6.<.7 4 u u ;.u 1.5.r ;.5.r i.4.>.3.t 7.u 6.6.u 4 6 >.i k U ! J $ $ $ # & : & % D sXdX<.:.4 4 ",
"r ;.6.u u ;.1.p.u u u ;.r u ;.;.r t u r u r u 5.3.u u ;.r.3.u u ;.t r ;.;.t 7 ;.r u u k < F , * = ; v b ^ _ _ / v #.zXG.l i r ;.",
"r 8.;.;.4.u ;.5.;.;.r.u u u 3.u 4 ;.;.y 1.u 6.>.;.:.;.;.>.6.8 r.;.;.r 4.;.6 t ;.u y x G $ # @ 1 ' -X%X+X+X+X+X+XXXjXgX! P S r 3.",
"p.p.p.5.4.t ;.4.3.u 8.u 5.:.p.6.4.6.p.;.u r.a.p.p.4.u u 4.6.t 8.;.>.;.i.p.>.8.i.5.h H , # = / ;X0X,X+X+XOXXX XXXXXtX*XV F J.aXJ.",
"u u ;.;.;.6 u ;.;.u u 4.7 ;.7.:.3.6.6.:.8 r u ;.:.:.7 7 ;.;.t u :.y 7 7.4.;.6.3.d # # $ = _ 0X2X+XOXXX X%.$.$. X%.%.OX} I lXzXN.",
"t t u 3.u 8 r :.3.4.u ;.4 6 u 5.u 4 4 t 8 8 r u u 3.7 7 ;.3.4.;.;.r 4 8 >.>.w < J P F > _ 0X2X+XOX%.%.%.$.|  XXX%.%.%.@XhXhXN.8 ",
"u 6.;.;.r r t ;.>.6.8 ;.r 4.u r.4.t ;.;.t y :.6.u u r t ;.;.p.u ;.r 1.;.:.i.S cXvXP * b ;X2X+XOX%.%.%.%.| | %.XX&XuXoX+XfXk.u r ",
"u i.>.3.6.8.4.6.>.a.u ;.p.a.3.3.;.p.r.u 5.u 6.5.3.4.6.r.4.:.p.1.u 4.v.3.>.;.p.Y J , ; &X2X+XOX%.%. XXX%.| | $.XXjXlXoXoX}.5.u 6.",
"u 3.u 5.3.;.t ;.;.4.u <.5.u 4.;.y p.1.t :.u 4.y 5.3.u u u :.:.;.4.6.3.;.<.r M.Q * # / 2X+X+X X%. XOXOX%.| | .. X&X#.%.*XC.u t 4.",
"y r u c.r r 5 r t t u 6.5.u ;.;.r r u r u y u r c.u r r r r u r 6.4.4.t 4.r Y J $ 2 .X#X+X X%.%.OX+XOX X=X*.| %.XX%.%.E.q.t r ;.",
"u t u 6.4 5.a.3.r 6.6.p.1.:.>.;.r.6.u 4 >.;.y t 5.r u a.5.y <.6.p.3.:.:.>.z K E > ^ +X+XXX%.%. X+X+XXX.XdX!.X. X+X X$.-Xk.q 6 6.",
"6 t ;.t u ;.1.r u 4.6.p.6.p.:.;.s.:.r u u 5 7 ;.y u ;.1.u t :.4.p.r.p.5.;.A xXH 2  X+XOX X%.%.OX+X+X%.*Xn.x.R. X+X X$.-X0.r ;.r ",
";.4.8.r.u r 1.1.3.4.u 5.r 4.u 5.>.;.r p.4.y 1.8.r.3.r u 3.;.8.y 6.y ;.;.j.cXE # _ +X+X X%.%. X+X+XXX%.-Xq.3.w.}  X%.$.$XM u c.u ",
"u 6.p.i.p.v.z c b.3.r 1.;.r 1.6.6.;.u p.u :.3.p.p.8.s.p.u i.8.t u 4.r 1.L.xXJ 2  X+XOX%.%.%. X+XOX%.%.&Xw.r 6.n ' $. X%XV.4.5.;.",
"4 r r u k.N.s a p.;.t u 1.u 3.u 4.t 4 ;.1.u r u r 6.c.r.u 6.5.8 u u ;.1.G.K.T o.+X+X X%.%.%.%. X X%.%.*Xl.t u 1.N %.| | !.r 1.6.",
"6 :.;.3 z z 0 4 :.u ;.t 3.p.r r.p.;.r t a r ;.:.r u 5.7 4 u ;.u ;.u a.u 3.c.^.+X+X+XOXXXXXXXXX X%.%.%.oXV.;.r p.P.| b b '.s t a ",
";.;.w d k z 5.4.:.6.u 8 6 t q 6.5.y y 4 ;.u ;.r 5.u >.8.,.4.4.:.t 6 t r ;.h..X+X+X+X>X1X1X1X7X2XOX X%.XXU.t 7 7 ` { [ E.Z.r r ;.",
"u y w < L d 3.8.6.:.u 6.;.:.4.u ;.3.;.;.;.;.y u c.4.4 ;.i.6.4.y 3.4.;.4.0.Y.+X+X+X+X>X3X4X4XqXeXeX,XOXXXE.q.6.u t.g.`.|.k.;.;.:.",
"6 4.l : K < 1.u.4.4 5.6.p.;.p.p.;.5.>.5.5.u u i.p.u :.4.<.a.4 ;.5.a.u h.T.+X+X+X+X+X+X>X3X4X4X4XqXrX2X+X-Xn.p.5.4.p.x.j.6.>.5.6.",
"r S T & , : z ,.u ;.p.p.6.u 4.>.;.;.>.3.6.;.t ;.;.r 4.<.;.;.t 8.p.d.g..X+X+X+X#X%X+X+X+X>X1X4X4X4XqXeX#X+X^.a.3.u 4.>.;.>.:.5.r.",
"s L vX, $ * x u u a.i.:.;.;.r r p.;.;.5.C.f.g.I.g.f.m y.0.n y.h.U.T.+X+X+X+X%X2X2X#X+X+X+X+X<X4X4X4XqX2X+XR.t.;.u 6 ;.6.;.;.p.6.",
"j.: W H # $ L k.3.;.v.y p.1.;.;.3.r.h.W.$X#X+X+X+X+XOXOX.X.XOX+X+X+X+X+X#X,X2X2X2X,X#X+X+X+X+X<X4X4XqX0XOX+.w.p.t <.u n.6.>.r 4 ",
"s L F H $ # H C u t ;.:.t r :.,.0.W.%X:X+X+X+X+X+X+X+X+X+X+X+X+X#X#X#X,X2X2X2X2X2X2X%X+X+X+X+X+X3X4X4X0XXX+.y.r t r.~.uX/.u r t ",
"r H.F , * # , U u ;.3.u t u ;.n W.>X+X+X+X+X>X2X7X5XXX+X+X#X,X2X,X2X2X2X2X2X2X2X2X2X,X+X+X+X+X+X<X4X4X0X%.} 0.y y.I.&X=X`.;.u 4.",
"6.L.W # * # + G Y 1.a.y 5.u 8.U.>X>X2X5X7X7X8XiXpX7XOX+X+X#X2X2X2X2X2X2X2X2X2X2X2X2X,X+X+X+X+X+X1X4X4X>XX._.V.' E.!.S.E./.4.r 1.",
"4.G.nXP + # O o : h i u y 4.s.W.6X8XiXiXiXiXiXiXiX5XOX+X+X+X#X,X2X2X2X2X2X2X2X2X2X2X,X+X+X+X+X:X3X4X4X:XX.X.X.} h.p.4.`.F.p.;.u ",
"6 r U Q G + + O + > < d - . - +.wX8X8X8X8XiXiXiX8X@X$. XOX+X+X+X#X,X2X2X2X2X2X2X2X2X#X+X+X+X+X<XqXeXeXeX0X0X5XyXg.t.;.(.j.4 t 7 ",
";.4.9.g G , # + O o O O O O f *X>X%X#X+X>X7X8XiX7X&.....X. X+X+X+X+X#X,X,X,X,X,X,X#X+X+X+X+X:X3XqXeXeXeXqXpX'.(.pX{.n.^.j.;.;.r ",
"t 8.>.3.c g : & # & : < h S j.&X%. XOX+X+X>X8XpX=X..........$.XX+X+X+X+X+X+X+X+X+X+X+X+X+X+X>X4X4X4X1X5X`.l.3.x.9XpX|.!.z.;.u 1.",
";.5.u 3.5.9.l c c m.z 9.r.;.t.E.%.%.%.OX+X+X7X8X&.............X. X+X+X+X+X+X+X+X+X+X+X+X+X+X@XyX'.tX_.V.z.;.4.r.y.W.@X!.v.3.u 6.",
"r u u c.r r 4 r u t t 6.6.u 3.R.%.%.%.OX+X+X7XtX{ ................%.OX+X+X+X+X+X+X+X+XOX X_./.z i p C ;.r >.4.j.V.R.=XM u t r u ",
"u r y p.4 ;.6.1.r 4.4.p.1.u r.R.%.%.%.OX+X+X;XV.B ~ ) [ { ..........X. XXXOX+XOXOX X&.E.Q.N.5.4 5.4.u t 4.6.i X [ &X-Xw.1.r r i.",
"r u ;.u t 4.5.t u 4.i.p.6.i.4.R.%.%. X+X+X>XU.;.n ( ~ ~ ~ ) ] { +.+.+.X.X.X.X.X.+.).V.l.;.u u u 6.1.r ;.<.a.e = =.kX7XF.;.r u u ",
"r ;.4.3.u r 1.u ;.4.;.p.u 6.3.R.%.%.OX+X>XW.0.,.1.N ~ ] [ [ ) ~ @.n l.B.V.g.V.Z l.k.r r >.:.3.r r 1.u 4.;.6.S I H.aXpXC.r u p.r ",
"3.p.a.p.i.i.:.1.p.>.t >.u u 0.E.%.OX+X,XW.y.5.d.x.B ~ [ { { o.` Z :.r ;.4.6.3.r p.4.:.3.p.c.r.i.i.u 3.p.u y j.K.bX].kXk.u 5.p.;.",
"4 u u >.a.D.6.;.p.3.t u ;.r g. XOX+X;X^.t.;.m ( ( ) o.#.` g.B.q.u ;.r 1.;.4.;.4 3.u 4.0 ;.u 4.v.v.1.5.p.;.t a T ; ).C.:.6 u 1.4.",
"r u t q 4.3.6 6 4.y u u 6.f.X.OX%XW.B.3.a r Z _ ] O.A.s r ;.1.8 ;.u a.u ;.6.:.6 u a u t u r r r.u 5 t 5.r ;.y - ; D 6.4.7 t ;.1.",
"r :.;.:.:.6.;.t ;.4.;.8 N .X+X-X/.q.r 4 1.r ;.M _ ' t.4.7 ;.>.4.8 6 u q >.a.<.r 4 u t u :.3.;.5.6.t ;.;.6.;.r f g a s.i.t 6 r ;.",
">.t r a.t 7 8.p.6.t.g.Y.XX%X`.l.u y ;.y ;.;.u r y.' N 4.p.r.6.y ;.u u ;.u u y ;.u u ;.;.r 3.i.6 u p.p.i.;.u 4.A S ;.u y u ;.u ;.",
"6 ;.p.p.;.t ;.8.3.m ;X5X$X~.v.6.3.p.4.3.4.u y 6.c.y.' 0.<.i.7 u 5.p.u p.p.5.p.8.:.4.:.7 5.c.8.t u 4.p.u r 4.p.3.6.p.r.5.p.:.4.5.",
"t ;.:.t ;.8.6.<.;.m 5X;X/.a 6.8.u u ;.6.r.:.u ;.u r Q.P.<.6.q 6.p.p.1.4.8.>.t ;.5.r.5.t ;.:.r 5.i.<.6.r ;.p.p.5.1.i.6.r u 3.r.p.",
"1.3.6.;.r u ;.u t U.;XZ.:.u t r r.>.:.;.p.;.1.6.>.r M O.y.r <.p.6.4.y u r 5.>.4.u z.;.1.4.5.u 7 ;.;.t ;.a.4.8.u u r ;.5.4.;.5.r.",
"u.3.;.y 3.3.t 3.k.'.[.t 6.3.-.t r.4.>.:.u ;.5.3.t :.B.o.Q.6.;.v.;.:.6.t 9 1.6.;.:.;.r 8.3.u u 5.u u 5.;.p.p.t p.u -.y p.;.>.;.r ",
"1.r 4.u 3.1.u 4.B.!.6.:.;.r 4.4.u 4.>.r 6 u u >.i v ).#.B.1.r :.4.;.u y i.u :.4.r 4 r u u 3.u 4.u u 5.u u 5.;.;.r 8.;.;.4.u 6 7 ",
"r 3.5.u u u ;.z.~./.u ;.r u ;.t 6 8 u t ;.r ;.5.3   ^ Q.k.3.y 1.u u r :.u r 6 ;.t u u y 4.3.u t u 3.p.r >.u ;.r ;.u r 4 u u u 3.",
";.i.3.3.6.;.:.5.}.A.p.u 3.u 6.:.r >.:.t a 1.i.3.f > R j.:.6.8 p.;.;.u 4.4.7 ;.4.;.r 3.5.6.5.1.<.;.:.6.;.5.6.u a 1.6.u t 4.:.r 3.",
"p.p.p.4.:.6 ;.r.yXA.,.u :.4.a.6.i.p.a.>.y r.p.p.A I x r 4.4.r 4.;.;.:.a.p.5.p.p.p.t 3.p.i.p.>.u r 4.4.u ;.:.u :.8.a.5.p.p.a.u u ",
"r r u ;.:.7 t w.uX|.V.l.6 7 4.;.u :.u u 7 4 r t C R i 7 ;.1.u u >.y 6 ;.:.y 3.u u t 4 r r u :.u 7 u ;.;.;.u >.4 u 4.u ;.;.u u 7 ",
";.;.;.3.r 7 r >.Z.W.X.V k r t r.:.4 r u u ;.u 3.a s 6 r ;.3.6.;.u r 6 t 3.8.4 6 u u ;.u 3.u 3.q r t :.4.,.t y 4 t u p.t 4 t ;.t ",
"8 6.;.;.;.u ;.:.:.C.v ; ! m.;.5.:.;.>.u u r :.<.u ;.t ;.:.;.p.y ;.u p.1.:.6.u 3.u u r u 8.u :.t ;.;.;.i.>.u ;.4.5.;.i.;.>.;.u t ",
";.r.;.3.6.i.3.6.;.a.9.C M.k.4.:.u c.r.u r.;.6.1.3.4.6.p.>.:.i.4.;.4.p.>.4.u p.z.1.3.4.4.5.3.3.6.p.;.4.4.p.u :.p.4.4.u 4.c.3.u i.",
"r ;.u p.u r 5 u ;.u t <.6.u ;.;.r 3.u r u r :.r p.3.r r r ;.;.r <.6.3.u 4.r ;.1.r t r u u 5.5.r r 6 u u t :.<.r.t 4.t u 3.t r ;.",
"u r y s.4 u u u r ;.;.6.3.u :.;.r y 1.r 3.;.r r p.y r u u r ;.u 6.3.1.u 5.r r 1.r u >.u 4 4.6.4 u u u t u 4.5.3.t 6.t r u t r 6.",
"y u u 3.6 6.p.a y <.8.p.3.6.;.;.c.i.r 4 :.y y u 3.t ;.p.3.u ,.6.p.5.4.3.;.r.s.u 4 u ;.y u ;.;.r p.5.u ;.6.p.p.3.5.;.>.v.3.0 r 3.",
"6 y ;.u u r a t u 4.4.p.3.i.>.;.i.u r 3.u 4 7 ;.u u t u u t 4.:.p.3.i.5.;.6.6.r ;.3.4 6 ;.;.u u t a r :.>.i.6.5.8.:.>.p.r u 4.r ",
"3.r.p.p.3.:.;.1.6.4.u 3.r ;.u r.3.;.r c.4.;.5.p.p.6.;.:.1.4.8.t 1.u y ;.5.4.3.r p.p.;.3.p.p.p.1.>.;.3.i.u u >.r >.1.6.3.t 1.c.;.",
"r 3.6.<.s.D.6.1.p.3.t u ;.r 3.4.6.;.y p.t ;.u 6.6.7.D.a.u p.6.y u 5.r 1.>.6.>.r p.u ;.r 6.r.<.D.v.:.5.p.;.r 5.r u 3.6.5.t 3.3.;."
};
